<?xml version="1.0" encoding="utf-8"?>
<!-- Generator: Adobe Illustrator 16.0.0, SVG Export Plug-In . SVG Version: 6.00 Build 0)  -->
<!DOCTYPE svg PUBLIC "-//W3C//DTD SVG 1.1//EN" "http://www.w3.org/Graphics/SVG/1.1/DTD/svg11.dtd">
<svg version="1.1" id="Layer_1" xmlns="http://www.w3.org/2000/svg" xmlns:xlink="http://www.w3.org/1999/xlink" x="0px" y="0px"
	 width="1024px" height="8px" viewBox="0 0 1024 8" enable-background="new 0 0 1024 8" xml:space="preserve">
<path fill="none" stroke="#000000" stroke-width="4" stroke-miterlimit="10" d="M1040,4"/>
<path fill="none" stroke="#000000" stroke-width="4" stroke-miterlimit="10" d="M-11,4"/>
<g>
	<path fill="none" stroke="#000000" stroke-width="4" stroke-miterlimit="10" d="M-6,4.559c37.035,0,37.035-0.925,74.07-0.925
		c37.032,0,37.032-0.163,74.064-0.163c37.033,0,37.033,0.236,74.065,0.236c37.034,0,37.034-0.143,74.067-0.143
		c37.036,0,37.036,0.564,74.071,0.564c37.036,0,37.036-0.355,74.072-0.355c37.035,0,37.035,0.292,74.07,0.292
		c37.037,0,37.037-0.202,74.073-0.202s37.036-0.203,74.072-0.203c37.034,0,37.034-0.145,74.069-0.145
		c37.036,0,37.036,0.498,74.072,0.498c37.037,0,37.037,0.786,74.075,0.786c37.04,0,37.04-1.063,74.079-1.063
		S993.961,3.714,1031,3.714"/>
</g>
</svg>
